<svg xmlns="http://www.w3.org/2000/svg" xmlns:xlink="http://www.w3.org/1999/xlink" width="500" zoomAndPan="magnify" viewBox="0 0 375 374.999991" height="500" preserveAspectRatio="xMidYMid meet" version="1.2"><defs><clipPath id="06afd7f96d"><path d="M 0 16.171875 L 375 16.171875 L 375 358.921875 L 0 358.921875 Z M 0 16.171875 "/></clipPath><clipPath id="84a8e6c2f5"><path d="M 0 16.261719 L 375 16.261719 L 375 358.921875 L 0 358.921875 Z M 0 16.261719 "/></clipPath><clipPath id="14505317ca"><path d="M 156.710938 293.816406 L 156.710938 258.976562 L 70.578125 258.976562 L 70.578125 221.4375 L 156.710938 221.4375 L 156.710938 153.433594 L 70.578125 153.433594 L 70.578125 116.023438 L 156.710938 116.023438 L 156.710938 81.183594 L 185.765625 81.183594 C 210.832031 81.183594 233.585938 91.339844 250.171875 107.792969 L 328.078125 107.792969 C 303.265625 53.929688 248.757812 16.261719 185.765625 16.261719 L 156.710938 16.261719 C 70.449219 16.261719 0 86.710938 0 172.972656 L 0 202.027344 C 0 288.160156 70.449219 358.738281 156.710938 358.738281 L 185.765625 358.738281 C 263.414062 358.738281 328.207031 301.53125 340.417969 227.222656 L 375 227.222656 L 310.851562 142.503906 L 238.085938 227.222656 L 274.082031 227.222656 C 263.027344 265.535156 227.546875 293.816406 185.894531 293.816406 Z M 156.710938 293.816406 "/></clipPath></defs><g id="7ca24dcae3"><g clip-rule="nonzero" clip-path="url(#06afd7f96d)"><path style=" stroke:none;fill-rule:evenodd;fill:#020202;fill-opacity:1;" d="M 156.710938 293.816406 L 156.710938 258.976562 L 70.578125 258.976562 L 70.578125 221.4375 L 156.710938 221.4375 L 156.710938 153.433594 L 70.578125 153.433594 L 70.578125 116.023438 L 156.710938 116.023438 L 156.710938 81.183594 L 185.765625 81.183594 C 210.832031 81.183594 233.585938 91.339844 250.171875 107.792969 L 328.078125 107.792969 C 303.265625 53.929688 248.757812 16.261719 185.765625 16.261719 L 156.710938 16.261719 C 70.449219 16.261719 0 86.710938 0 172.972656 L 0 202.027344 C 0 288.160156 70.449219 358.738281 156.710938 358.738281 L 185.765625 358.738281 C 263.414062 358.738281 328.207031 301.53125 340.417969 227.222656 L 375 227.222656 L 310.851562 142.503906 L 238.085938 227.222656 L 274.082031 227.222656 C 263.027344 265.535156 227.546875 293.816406 185.894531 293.816406 Z M 156.710938 293.816406 "/></g><g clip-rule="nonzero" clip-path="url(#84a8e6c2f5)"><g clip-rule="nonzero" clip-path="url(#14505317ca)"><path style=" stroke:none;fill-rule:nonzero;fill:#3ac461;fill-opacity:1;" d="M 0 16.261719 L 375 16.261719 L 375 358.738281 L 0 358.738281 Z M 0 16.261719 "/></g></g><g style="fill:#3ac461;fill-opacity:1;"><g transform="translate(119.370561, 193.124987)"><path style="stroke:none" d="M 6.640625 0 L 6.390625 -1.21875 L 6.328125 -1.21875 C 5.898438 -0.6875 5.472656 -0.320312 5.046875 -0.125 C 4.617188 0.0625 4.085938 0.15625 3.453125 0.15625 C 2.609375 0.15625 1.941406 -0.0625 1.453125 -0.5 C 0.972656 -0.9375 0.734375 -1.5625 0.734375 -2.375 C 0.734375 -4.101562 2.117188 -5.007812 4.890625 -5.09375 L 6.34375 -5.140625 L 6.34375 -5.671875 C 6.34375 -6.335938 6.195312 -6.832031 5.90625 -7.15625 C 5.613281 -7.476562 5.148438 -7.640625 4.515625 -7.640625 C 3.804688 -7.640625 3 -7.421875 2.09375 -6.984375 L 1.703125 -7.96875 C 2.117188 -8.195312 2.578125 -8.375 3.078125 -8.5 C 3.585938 -8.632812 4.09375 -8.703125 4.59375 -8.703125 C 5.613281 -8.703125 6.367188 -8.472656 6.859375 -8.015625 C 7.359375 -7.566406 7.609375 -6.84375 7.609375 -5.84375 L 7.609375 0 Z M 3.71875 -0.921875 C 4.519531 -0.921875 5.148438 -1.140625 5.609375 -1.578125 C 6.078125 -2.023438 6.3125 -2.644531 6.3125 -3.4375 L 6.3125 -4.21875 L 5.015625 -4.15625 C 3.984375 -4.125 3.238281 -3.960938 2.78125 -3.671875 C 2.320312 -3.390625 2.09375 -2.953125 2.09375 -2.359375 C 2.09375 -1.890625 2.234375 -1.53125 2.515625 -1.28125 C 2.804688 -1.039062 3.207031 -0.921875 3.71875 -0.921875 Z M 3.71875 -0.921875 "/></g></g></g></svg>